<svg id="Layer_1" data-name="Layer 1" xmlns="http://www.w3.org/2000/svg" xmlns:xlink="http://www.w3.org/1999/xlink" viewBox="0 0 512 512"><defs><style>.cls-1{fill:none;}.cls-2{fill:#5e9eff;}.cls-3{fill:#fff;}.cls-4{clip-path:url(#clip-path);}.cls-5{fill:#231f20;opacity:0.2;}.cls-6{fill:#f95d55;}</style><clipPath id="clip-path"><rect class="cls-1" x="173.77" y="65.22" width="300.37" height="351.73" rx="12" ry="12" transform="translate(73.44 -75.63) rotate(15)"/></clipPath></defs><title>Artboard 1</title><rect class="cls-2" x="173.77" y="65.22" width="300.37" height="351.73" rx="12" ry="12" transform="translate(73.44 -75.63) rotate(15)"/><rect class="cls-3" x="197.45" y="81.7" width="266.91" height="266.91" rx="12" ry="12" transform="matrix(0.97, 0.26, -0.26, 0.97, 66.96, -78.31)"/><g class="cls-4"><rect class="cls-5" x="46.86" y="111.05" width="300.37" height="351.73" rx="12" ry="12" transform="translate(-67.55 60.77) rotate(-15)"/></g><rect class="cls-2" x="37.86" y="105.05" width="300.37" height="351.73" rx="12" ry="12" transform="translate(-66.3 58.24) rotate(-15)"/><rect class="cls-3" x="47.64" y="121.53" width="266.91" height="266.91" rx="12" ry="12" transform="translate(-59.82 55.56) rotate(-15)"/><path class="cls-6" d="M207,351.59l-19-9.81C120.58,307.14,76.07,284.2,65.43,244.5c-8.72-32.54,10-64.74,42.39-73.43a65.55,65.55,0,0,1,53.25,9.21,65.55,65.55,0,0,1,41.51-34.6C235,137,267.3,155.54,276,188.07c10.64,39.7-16.45,81.82-57.5,145.53Z"/></svg>