<?xml version="1.0" encoding="utf-8"?>
<!-- Generator: Adobe Illustrator 21.1.0, SVG Export Plug-In . SVG Version: 6.00 Build 0)  -->
<svg version="1.1" id="Layer_1" xmlns="http://www.w3.org/2000/svg" xmlns:xlink="http://www.w3.org/1999/xlink" x="0px" y="0px"
	 viewBox="0 0 512 512" style="enable-background:new 0 0 512 512;" xml:space="preserve">
<style type="text/css">
	.st0{fill:#5E9EFF;}
	.st1{fill:#FFFFFF;}
	.st2{fill:#F95D55;}
</style>
<path class="st0" d="M500,373.3H205.2c-6.6,0-12-5.4-12-12V12c0-6.6,5.4-12,12-12H500c6.6,0,12,5.4,12,12v349.3
	C512,367.9,506.6,373.3,500,373.3z"/>
<path class="st1" d="M482.2,299.8H223c-6.6,0-12-5.4-12-12V28.5c0-6.6,5.4-12,12-12h259.3c6.6,0,12,5.4,12,12v259.3
	C494.2,294.4,488.8,299.8,482.2,299.8z"/>
<path class="st0" d="M447.9,363L192.6,510.4c-5.7,3.3-13.1,1.3-16.4-4.4L1.6,203.5c-3.3-5.7-1.3-13.1,4.4-16.4L261.3,39.7
	c5.7-3.3,13.1-1.3,16.4,4.4l174.6,302.5C455.6,352.3,453.6,359.7,447.9,363z"/>
<path class="st1" d="M395.8,308.2L171.3,437.9c-5.7,3.3-13.1,1.3-16.4-4.4L25.2,208.9c-3.3-5.7-1.3-13.1,4.4-16.4L254.2,62.9
	c5.7-3.3,13.1-1.3,16.4,4.4l129.6,224.5C403.5,297.6,401.5,304.9,395.8,308.2z"/>
<path class="st2" d="M265.8,342.3l-22.2-4.8c-78.6-17-130.6-28.3-152.4-66.1c-17.9-31-7.6-69.1,23.3-86.9
	c17.4-10.1,38.9-11.6,57.1-5.2c3.6-19,15.6-36.8,33.1-46.9c30.9-17.8,69-7.7,86.9,23.3c21.8,37.8,5.6,88.4-19,165L265.8,342.3z"/>
</svg>
